<svg xmlns="http://www.w3.org/2000/svg" width="375" viewBox="0 0 375 375" height="375" version="1.0"><defs><clipPath id="a"><path d="M 71.90625 124.011719 L 302.90625 124.011719 L 302.90625 250.761719 L 71.90625 250.761719 Z M 71.90625 124.011719"/></clipPath></defs><g clip-path="url(#a)"><path fill="#473C38" d="M 288.320312 250.695312 L 287.628906 250.695312 C 287.042969 250.695312 286.59375 250.246094 286.59375 249.660156 C 286.59375 249.074219 287.042969 248.628906 287.628906 248.628906 L 288.320312 248.628906 C 288.90625 248.628906 289.355469 249.074219 289.355469 249.660156 C 289.355469 250.246094 288.90625 250.695312 288.320312 250.695312 Z M 280.730469 250.695312 L 280.042969 250.695312 C 279.457031 250.695312 279.007812 250.246094 279.007812 249.660156 C 279.007812 249.074219 279.457031 248.628906 280.042969 248.628906 L 280.730469 248.628906 C 281.320312 248.628906 281.765625 249.074219 281.765625 249.660156 C 281.765625 250.246094 281.320312 250.695312 280.730469 250.695312 Z M 273.144531 250.695312 L 272.457031 250.695312 C 271.867188 250.695312 271.421875 250.246094 271.421875 249.660156 C 271.421875 249.074219 271.867188 248.628906 272.457031 248.628906 L 273.144531 248.628906 C 273.730469 248.628906 274.179688 249.074219 274.179688 249.660156 C 274.179688 250.246094 273.695312 250.695312 273.144531 250.695312 Z M 265.558594 250.695312 L 264.867188 250.695312 C 264.28125 250.695312 263.832031 250.246094 263.832031 249.660156 C 263.832031 249.074219 264.28125 248.628906 264.867188 248.628906 L 265.558594 248.628906 C 266.144531 248.628906 266.59375 249.074219 266.59375 249.660156 C 266.59375 250.246094 266.109375 250.695312 265.558594 250.695312 Z M 257.9375 250.695312 L 257.246094 250.695312 C 256.660156 250.695312 256.210938 250.246094 256.210938 249.660156 C 256.210938 249.074219 256.660156 248.628906 257.246094 248.628906 L 257.9375 248.628906 C 258.523438 248.628906 258.96875 249.074219 258.96875 249.660156 C 258.96875 250.246094 258.523438 250.695312 257.9375 250.695312 Z M 250.347656 250.695312 L 249.660156 250.695312 C 249.074219 250.695312 248.625 250.246094 248.625 249.660156 C 248.625 249.074219 249.074219 248.628906 249.660156 248.628906 L 250.347656 248.628906 C 250.933594 248.628906 251.382812 249.074219 251.382812 249.660156 C 251.382812 250.246094 250.898438 250.695312 250.347656 250.695312 Z M 242.761719 250.695312 L 242.070312 250.695312 C 241.484375 250.695312 241.035156 250.246094 241.035156 249.660156 C 241.035156 249.074219 241.484375 248.628906 242.070312 248.628906 L 242.761719 248.628906 C 243.347656 248.628906 243.796875 249.074219 243.796875 249.660156 C 243.796875 250.246094 243.3125 250.695312 242.761719 250.695312 Z M 235.140625 250.695312 L 234.449219 250.695312 C 233.863281 250.695312 233.414062 250.246094 233.414062 249.660156 C 233.414062 249.074219 233.863281 248.628906 234.449219 248.628906 L 235.140625 248.628906 C 235.726562 248.628906 236.175781 249.074219 236.175781 249.660156 C 236.175781 250.246094 235.726562 250.695312 235.140625 250.695312 Z M 227.550781 250.695312 L 226.863281 250.695312 C 226.277344 250.695312 225.828125 250.246094 225.828125 249.660156 C 225.828125 249.074219 226.277344 248.628906 226.863281 248.628906 L 227.550781 248.628906 C 228.136719 248.628906 228.585938 249.074219 228.585938 249.660156 C 228.585938 250.246094 228.136719 250.695312 227.550781 250.695312 Z M 219.964844 250.695312 L 219.273438 250.695312 C 218.6875 250.695312 218.242188 250.246094 218.242188 249.660156 C 218.242188 249.074219 218.6875 248.628906 219.273438 248.628906 L 219.964844 248.628906 C 220.550781 248.628906 221 249.074219 221 249.660156 C 221 250.246094 220.515625 250.695312 219.964844 250.695312 Z M 212.34375 250.695312 L 211.652344 250.695312 C 211.066406 250.695312 210.617188 250.246094 210.617188 249.660156 C 210.617188 249.074219 211.066406 248.628906 211.652344 248.628906 L 212.34375 248.628906 C 212.929688 248.628906 213.378906 249.074219 213.378906 249.660156 C 213.378906 250.246094 212.929688 250.695312 212.34375 250.695312 Z M 204.753906 250.695312 L 204.066406 250.695312 C 203.480469 250.695312 203.03125 250.246094 203.03125 249.660156 C 203.03125 249.074219 203.480469 248.628906 204.066406 248.628906 L 204.753906 248.628906 C 205.34375 248.628906 205.789062 249.074219 205.789062 249.660156 C 205.789062 250.246094 205.339844 250.695312 204.753906 250.695312 Z M 197.167969 250.695312 L 196.476562 250.695312 C 195.890625 250.695312 195.445312 250.246094 195.445312 249.660156 C 195.445312 249.074219 195.890625 248.628906 196.476562 248.628906 L 197.167969 248.628906 C 197.753906 248.628906 198.203125 249.074219 198.203125 249.660156 C 198.203125 250.246094 197.71875 250.695312 197.167969 250.695312 Z M 189.582031 250.695312 L 188.890625 250.695312 C 188.304688 250.695312 187.855469 250.246094 187.855469 249.660156 C 187.855469 249.074219 188.304688 248.628906 188.890625 248.628906 L 189.582031 248.628906 C 190.167969 248.628906 190.617188 249.074219 190.617188 249.660156 C 190.617188 250.246094 190.132812 250.695312 189.582031 250.695312 Z M 181.960938 250.695312 L 181.269531 250.695312 C 180.683594 250.695312 180.234375 250.246094 180.234375 249.660156 C 180.234375 249.074219 180.683594 248.628906 181.269531 248.628906 L 181.960938 248.628906 C 182.546875 248.628906 182.992188 249.074219 182.992188 249.660156 C 182.992188 250.246094 182.546875 250.695312 181.960938 250.695312 Z M 174.371094 250.695312 L 173.683594 250.695312 C 173.09375 250.695312 172.648438 250.246094 172.648438 249.660156 C 172.648438 249.074219 173.09375 248.628906 173.683594 248.628906 L 174.371094 248.628906 C 174.957031 248.628906 175.40625 249.074219 175.40625 249.660156 C 175.40625 250.246094 174.921875 250.695312 174.371094 250.695312 Z M 166.785156 250.695312 L 166.09375 250.695312 C 165.507812 250.695312 165.058594 250.246094 165.058594 249.660156 C 165.058594 249.074219 165.507812 248.628906 166.09375 248.628906 L 166.785156 248.628906 C 167.371094 248.628906 167.820312 249.074219 167.820312 249.660156 C 167.820312 250.246094 167.335938 250.695312 166.785156 250.695312 Z M 159.164062 250.695312 L 158.472656 250.695312 C 157.886719 250.695312 157.4375 250.246094 157.4375 249.660156 C 157.4375 249.074219 157.886719 248.628906 158.472656 248.628906 L 159.164062 248.628906 C 159.75 248.628906 160.195312 249.074219 160.195312 249.660156 C 160.195312 250.246094 159.75 250.695312 159.164062 250.695312 Z M 151.574219 250.695312 L 150.886719 250.695312 C 150.300781 250.695312 149.851562 250.246094 149.851562 249.660156 C 149.851562 249.074219 150.300781 248.628906 150.886719 248.628906 L 151.574219 248.628906 C 152.160156 248.628906 152.609375 249.074219 152.609375 249.660156 C 152.609375 250.246094 152.160156 250.695312 151.574219 250.695312 Z M 143.988281 250.695312 L 143.296875 250.695312 C 142.710938 250.695312 142.261719 250.246094 142.261719 249.660156 C 142.261719 249.074219 142.710938 248.628906 143.296875 248.628906 L 143.988281 248.628906 C 144.574219 248.628906 145.023438 249.074219 145.023438 249.660156 C 145.023438 250.246094 144.539062 250.695312 143.988281 250.695312 Z M 136.367188 250.695312 L 135.675781 250.695312 C 135.089844 250.695312 134.640625 250.246094 134.640625 249.660156 C 134.640625 249.074219 135.089844 248.628906 135.675781 248.628906 L 136.367188 248.628906 C 136.953125 248.628906 137.402344 249.074219 137.402344 249.660156 C 137.402344 250.246094 136.953125 250.695312 136.367188 250.695312 Z M 128.777344 250.695312 L 128.089844 250.695312 C 127.503906 250.695312 127.054688 250.246094 127.054688 249.660156 C 127.054688 249.074219 127.503906 248.628906 128.089844 248.628906 L 128.777344 248.628906 C 129.363281 248.628906 129.8125 249.074219 129.8125 249.660156 C 129.8125 250.246094 129.363281 250.695312 128.777344 250.695312 Z M 121.191406 250.695312 L 120.5 250.695312 C 119.914062 250.695312 119.46875 250.246094 119.46875 249.660156 C 119.46875 249.074219 119.914062 248.628906 120.5 248.628906 L 121.191406 248.628906 C 121.777344 248.628906 122.226562 249.074219 122.226562 249.660156 C 122.226562 250.246094 121.742188 250.695312 121.191406 250.695312 Z M 113.605469 250.695312 L 112.914062 250.695312 C 112.328125 250.695312 111.878906 250.246094 111.878906 249.660156 C 111.878906 249.074219 112.328125 248.628906 112.914062 248.628906 L 113.605469 248.628906 C 114.191406 248.628906 114.636719 249.074219 114.636719 249.660156 C 114.636719 250.246094 114.15625 250.695312 113.605469 250.695312 Z M 105.980469 250.695312 L 105.292969 250.695312 C 104.707031 250.695312 104.257812 250.246094 104.257812 249.660156 C 104.257812 249.074219 104.707031 248.628906 105.292969 248.628906 L 105.980469 248.628906 C 106.570312 248.628906 107.015625 249.074219 107.015625 249.660156 C 107.015625 250.246094 106.570312 250.695312 105.980469 250.695312 Z M 98.394531 250.695312 L 97.703125 250.695312 C 97.117188 250.695312 96.671875 250.246094 96.671875 249.660156 C 96.671875 249.074219 97.117188 248.628906 97.703125 248.628906 L 98.394531 248.628906 C 98.980469 248.628906 99.429688 249.074219 99.429688 249.660156 C 99.429688 250.246094 98.945312 250.695312 98.394531 250.695312 Z M 90.808594 250.695312 L 90.117188 250.695312 C 89.53125 250.695312 89.082031 250.246094 89.082031 249.660156 C 89.082031 249.074219 89.53125 248.628906 90.117188 248.628906 L 90.808594 248.628906 C 91.394531 248.628906 91.84375 249.074219 91.84375 249.660156 C 91.84375 250.246094 91.359375 250.695312 90.808594 250.695312 Z M 83.21875 250.28125 C 83.152344 250.28125 83.046875 250.28125 82.980469 250.246094 C 82.738281 250.175781 82.496094 250.109375 82.253906 250.039062 C 81.703125 249.867188 81.390625 249.28125 81.566406 248.765625 C 81.738281 248.214844 82.324219 247.902344 82.839844 248.074219 C 83.046875 248.144531 83.253906 248.179688 83.460938 248.246094 C 84.011719 248.386719 84.359375 248.9375 84.21875 249.488281 C 84.117188 249.972656 83.703125 250.28125 83.21875 250.28125 Z M 294.941406 248.9375 C 294.597656 248.9375 294.21875 248.765625 294.042969 248.421875 C 293.769531 247.9375 293.941406 247.285156 294.425781 247.007812 C 294.597656 246.90625 294.804688 246.800781 294.976562 246.699219 C 295.457031 246.386719 296.113281 246.523438 296.390625 247.007812 C 296.699219 247.488281 296.5625 248.144531 296.078125 248.421875 C 295.871094 248.558594 295.664062 248.660156 295.457031 248.800781 C 295.285156 248.902344 295.113281 248.9375 294.941406 248.9375 Z M 76.738281 246.523438 C 76.460938 246.523438 76.183594 246.421875 75.976562 246.214844 C 75.804688 246.042969 75.632812 245.871094 75.460938 245.664062 C 75.082031 245.214844 75.117188 244.597656 75.5625 244.21875 C 76.011719 243.839844 76.632812 243.871094 77.011719 244.320312 C 77.148438 244.492188 77.289062 244.628906 77.425781 244.800781 C 77.804688 245.214844 77.804688 245.871094 77.390625 246.25 C 77.253906 246.421875 77.011719 246.523438 76.738281 246.523438 Z M 300.21875 243.632812 C 300.046875 243.632812 299.875 243.597656 299.734375 243.492188 C 299.21875 243.21875 299.046875 242.597656 299.320312 242.082031 C 299.425781 241.910156 299.527344 241.703125 299.632812 241.53125 C 299.875 241.011719 300.492188 240.804688 301.011719 241.046875 C 301.527344 241.289062 301.734375 241.910156 301.492188 242.425781 C 301.390625 242.632812 301.289062 242.875 301.148438 243.078125 C 300.941406 243.425781 300.5625 243.632812 300.21875 243.632812 Z M 73.21875 239.910156 C 72.734375 239.910156 72.320312 239.566406 72.21875 239.082031 C 72.183594 238.84375 72.113281 238.601562 72.082031 238.359375 C 71.976562 237.808594 72.390625 237.257812 72.941406 237.1875 C 73.496094 237.085938 74.046875 237.5 74.117188 238.050781 C 74.148438 238.257812 74.183594 238.464844 74.21875 238.671875 C 74.320312 239.222656 73.976562 239.773438 73.425781 239.910156 C 73.390625 239.875 73.289062 239.910156 73.21875 239.910156 Z M 301.875 236.328125 C 301.289062 236.328125 300.839844 235.878906 300.839844 235.292969 L 300.839844 234.605469 C 300.839844 234.019531 301.289062 233.570312 301.875 233.570312 C 302.460938 233.570312 302.90625 234.019531 302.90625 234.605469 L 302.90625 235.292969 C 302.90625 235.84375 302.460938 236.328125 301.875 236.328125 Z M 72.941406 232.332031 C 72.355469 232.332031 71.90625 231.882812 71.90625 231.296875 L 71.90625 230.609375 C 71.90625 230.023438 72.355469 229.574219 72.941406 229.574219 C 73.527344 229.574219 73.976562 230.023438 73.976562 230.609375 L 73.976562 231.296875 C 73.976562 231.882812 73.527344 232.332031 72.941406 232.332031 Z M 301.875 228.710938 C 301.289062 228.710938 300.839844 228.265625 300.839844 227.679688 L 300.839844 226.988281 C 300.839844 226.40625 301.289062 225.957031 301.875 225.957031 C 302.460938 225.957031 302.90625 226.40625 302.90625 226.988281 L 302.90625 227.679688 C 302.90625 228.265625 302.460938 228.710938 301.875 228.710938 Z M 72.941406 224.75 C 72.355469 224.75 71.90625 224.304688 71.90625 223.71875 L 71.90625 223.027344 C 71.90625 222.441406 72.355469 221.996094 72.941406 221.996094 C 73.527344 221.996094 73.976562 222.441406 73.976562 223.027344 L 73.976562 223.71875 C 73.976562 224.269531 73.527344 224.75 72.941406 224.75 Z M 301.875 221.132812 C 301.289062 221.132812 300.839844 220.683594 300.839844 220.097656 L 300.839844 219.410156 C 300.839844 218.824219 301.289062 218.375 301.875 218.375 C 302.460938 218.375 302.90625 218.824219 302.90625 219.410156 L 302.90625 220.097656 C 302.90625 220.683594 302.460938 221.132812 301.875 221.132812 Z M 72.941406 217.136719 C 72.355469 217.136719 71.90625 216.6875 71.90625 216.101562 L 71.90625 215.414062 C 71.90625 214.828125 72.355469 214.378906 72.941406 214.378906 C 73.527344 214.378906 73.976562 214.828125 73.976562 215.414062 L 73.976562 216.101562 C 73.976562 216.6875 73.527344 217.136719 72.941406 217.136719 Z M 301.875 213.554688 C 301.289062 213.554688 300.839844 213.105469 300.839844 212.519531 L 300.839844 211.832031 C 300.839844 211.246094 301.289062 210.796875 301.875 210.796875 C 302.460938 210.796875 302.90625 211.246094 302.90625 211.832031 L 302.90625 212.519531 C 302.90625 213.070312 302.460938 213.554688 301.875 213.554688 Z M 72.941406 209.554688 C 72.355469 209.554688 71.90625 209.109375 71.90625 208.523438 L 71.90625 207.832031 C 71.90625 207.25 72.355469 206.800781 72.941406 206.800781 C 73.527344 206.800781 73.976562 207.25 73.976562 207.832031 L 73.976562 208.523438 C 73.976562 209.109375 73.527344 209.554688 72.941406 209.554688 Z M 301.875 205.9375 C 301.289062 205.9375 300.839844 205.492188 300.839844 204.90625 L 300.839844 204.214844 C 300.839844 203.628906 301.289062 203.183594 301.875 203.183594 C 302.460938 203.183594 302.90625 203.628906 302.90625 204.214844 L 302.90625 204.90625 C 302.90625 205.492188 302.460938 205.9375 301.875 205.9375 Z M 72.941406 201.976562 C 72.355469 201.976562 71.90625 201.527344 71.90625 200.941406 L 71.90625 200.253906 C 71.90625 199.667969 72.355469 199.21875 72.941406 199.21875 C 73.527344 199.21875 73.976562 199.667969 73.976562 200.253906 L 73.976562 200.941406 C 73.976562 201.496094 73.527344 201.976562 72.941406 201.976562 Z M 301.875 198.359375 C 301.289062 198.359375 300.839844 197.910156 300.839844 197.324219 L 300.839844 196.636719 C 300.839844 196.050781 301.289062 195.601562 301.875 195.601562 C 302.460938 195.601562 302.90625 196.050781 302.90625 196.636719 L 302.90625 197.324219 C 302.90625 197.910156 302.460938 198.359375 301.875 198.359375 Z M 72.941406 194.363281 C 72.355469 194.363281 71.90625 193.914062 71.90625 193.328125 L 71.90625 192.640625 C 71.90625 192.054688 72.355469 191.605469 72.941406 191.605469 C 73.527344 191.605469 73.976562 192.054688 73.976562 192.640625 L 73.976562 193.328125 C 73.976562 193.914062 73.527344 194.363281 72.941406 194.363281 Z M 301.875 190.78125 C 301.289062 190.78125 300.839844 190.332031 300.839844 189.746094 L 300.839844 189.058594 C 300.839844 188.472656 301.289062 188.023438 301.875 188.023438 C 302.460938 188.023438 302.90625 188.472656 302.90625 189.058594 L 302.90625 189.746094 C 302.90625 190.296875 302.460938 190.78125 301.875 190.78125 Z M 72.941406 186.78125 C 72.355469 186.78125 71.90625 186.335938 71.90625 185.75 L 71.90625 185.058594 C 71.90625 184.472656 72.355469 184.027344 72.941406 184.027344 C 73.527344 184.027344 73.976562 184.472656 73.976562 185.058594 L 73.976562 185.75 C 73.976562 186.335938 73.527344 186.78125 72.941406 186.78125 Z M 301.875 183.199219 C 301.289062 183.199219 300.839844 182.75 300.839844 182.164062 L 300.839844 181.476562 C 300.839844 180.890625 301.289062 180.441406 301.875 180.441406 C 302.460938 180.441406 302.90625 180.890625 302.90625 181.476562 L 302.90625 182.164062 C 302.90625 182.71875 302.460938 183.199219 301.875 183.199219 Z M 72.941406 179.203125 C 72.355469 179.203125 71.90625 178.753906 71.90625 178.167969 L 71.90625 177.480469 C 71.90625 176.894531 72.355469 176.445312 72.941406 176.445312 C 73.527344 176.445312 73.976562 176.894531 73.976562 177.480469 L 73.976562 178.167969 C 73.976562 178.71875 73.527344 179.203125 72.941406 179.203125 Z M 301.875 175.585938 C 301.289062 175.585938 300.839844 175.136719 300.839844 174.550781 L 300.839844 173.863281 C 300.839844 173.277344 301.289062 172.828125 301.875 172.828125 C 302.460938 172.828125 302.90625 173.277344 302.90625 173.863281 L 302.90625 174.550781 C 302.90625 175.136719 302.460938 175.585938 301.875 175.585938 Z M 72.941406 171.625 C 72.355469 171.625 71.90625 171.175781 71.90625 170.589844 L 71.90625 169.902344 C 71.90625 169.316406 72.355469 168.867188 72.941406 168.867188 C 73.527344 168.867188 73.976562 169.316406 73.976562 169.902344 L 73.976562 170.589844 C 73.976562 171.140625 73.527344 171.625 72.941406 171.625 Z M 301.875 168.003906 C 301.289062 168.003906 300.839844 167.558594 300.839844 166.972656 L 300.839844 166.28125 C 300.839844 165.695312 301.289062 165.25 301.875 165.25 C 302.460938 165.25 302.90625 165.695312 302.90625 166.28125 L 302.90625 166.972656 C 302.90625 167.523438 302.460938 168.003906 301.875 168.003906 Z M 72.941406 164.007812 C 72.355469 164.007812 71.90625 163.5625 71.90625 162.976562 L 71.90625 162.285156 C 71.90625 161.699219 72.355469 161.253906 72.941406 161.253906 C 73.527344 161.253906 73.976562 161.699219 73.976562 162.285156 L 73.976562 162.976562 C 73.976562 163.5625 73.527344 164.007812 72.941406 164.007812 Z M 301.875 160.425781 C 301.289062 160.425781 300.839844 159.976562 300.839844 159.390625 L 300.839844 158.703125 C 300.839844 158.117188 301.289062 157.667969 301.875 157.667969 C 302.460938 157.667969 302.90625 158.117188 302.90625 158.703125 L 302.90625 159.390625 C 302.90625 159.945312 302.460938 160.425781 301.875 160.425781 Z M 72.941406 156.429688 C 72.355469 156.429688 71.90625 155.980469 71.90625 155.394531 L 71.90625 154.707031 C 71.90625 154.121094 72.355469 153.671875 72.941406 153.671875 C 73.527344 153.671875 73.976562 154.121094 73.976562 154.707031 L 73.976562 155.394531 C 73.976562 155.980469 73.527344 156.429688 72.941406 156.429688 Z M 301.875 152.8125 C 301.289062 152.8125 300.839844 152.363281 300.839844 151.777344 L 300.839844 151.089844 C 300.839844 150.503906 301.289062 150.054688 301.875 150.054688 C 302.460938 150.054688 302.90625 150.503906 302.90625 151.089844 L 302.90625 151.777344 C 302.90625 152.363281 302.460938 152.8125 301.875 152.8125 Z M 72.941406 148.847656 C 72.355469 148.847656 71.90625 148.402344 71.90625 147.816406 L 71.90625 147.125 C 71.90625 146.539062 72.355469 146.09375 72.941406 146.09375 C 73.527344 146.09375 73.976562 146.539062 73.976562 147.125 L 73.976562 147.816406 C 73.976562 148.367188 73.527344 148.847656 72.941406 148.847656 Z M 301.875 145.230469 C 301.289062 145.230469 300.839844 144.785156 300.839844 144.199219 L 300.839844 143.507812 C 300.839844 142.921875 301.289062 142.476562 301.875 142.476562 C 302.460938 142.476562 302.90625 142.921875 302.90625 143.507812 L 302.90625 144.199219 C 302.90625 144.785156 302.460938 145.230469 301.875 145.230469 Z M 72.941406 141.234375 C 72.355469 141.234375 71.90625 140.789062 71.90625 140.203125 L 71.90625 139.511719 C 71.90625 138.925781 72.355469 138.480469 72.941406 138.480469 C 73.527344 138.480469 73.976562 138.925781 73.976562 139.511719 L 73.976562 140.203125 C 73.976562 140.789062 73.527344 141.234375 72.941406 141.234375 Z M 301.734375 137.652344 C 301.21875 137.652344 300.804688 137.273438 300.699219 136.789062 C 300.667969 136.582031 300.632812 136.378906 300.597656 136.171875 C 300.492188 135.617188 300.839844 135.066406 301.390625 134.964844 C 301.941406 134.859375 302.496094 135.207031 302.597656 135.757812 C 302.632812 136 302.699219 136.238281 302.734375 136.480469 C 302.839844 137.03125 302.425781 137.582031 301.875 137.652344 C 301.839844 137.652344 301.769531 137.652344 301.734375 137.652344 Z M 74.289062 133.863281 C 74.148438 133.863281 73.976562 133.828125 73.839844 133.757812 C 73.320312 133.515625 73.113281 132.898438 73.355469 132.378906 C 73.460938 132.171875 73.5625 131.933594 73.703125 131.726562 C 73.976562 131.210938 74.597656 131.035156 75.117188 131.3125 C 75.632812 131.589844 75.804688 132.207031 75.53125 132.726562 C 75.425781 132.898438 75.324219 133.105469 75.253906 133.277344 C 75.046875 133.65625 74.667969 133.863281 74.289062 133.863281 Z M 298.597656 130.863281 C 298.320312 130.863281 298.011719 130.726562 297.804688 130.519531 C 297.664062 130.347656 297.527344 130.210938 297.390625 130.039062 C 297.011719 129.625 297.011719 128.96875 297.425781 128.589844 C 297.839844 128.210938 298.492188 128.210938 298.871094 128.625 C 299.046875 128.796875 299.21875 128.96875 299.355469 129.175781 C 299.734375 129.625 299.667969 130.246094 299.253906 130.625 C 299.078125 130.761719 298.839844 130.863281 298.597656 130.863281 Z M 79.253906 128.246094 C 78.910156 128.246094 78.5625 128.074219 78.390625 127.765625 C 78.082031 127.28125 78.21875 126.625 78.703125 126.351562 C 78.910156 126.214844 79.117188 126.074219 79.324219 125.972656 C 79.804688 125.695312 80.460938 125.867188 80.738281 126.351562 C 81.011719 126.832031 80.839844 127.488281 80.359375 127.765625 C 80.183594 127.867188 79.976562 127.96875 79.804688 128.074219 C 79.632812 128.210938 79.460938 128.246094 79.253906 128.246094 Z M 292.320312 126.765625 C 292.21875 126.765625 292.113281 126.765625 292.011719 126.730469 C 291.804688 126.660156 291.597656 126.625 291.390625 126.558594 C 290.835938 126.421875 290.492188 125.867188 290.628906 125.316406 C 290.769531 124.765625 291.320312 124.421875 291.871094 124.558594 C 292.113281 124.628906 292.355469 124.699219 292.597656 124.765625 C 293.148438 124.9375 293.457031 125.523438 293.285156 126.074219 C 293.148438 126.453125 292.769531 126.765625 292.320312 126.765625 Z M 86.460938 126.144531 C 85.910156 126.144531 85.425781 125.695312 85.425781 125.109375 C 85.425781 124.523438 85.875 124.078125 86.460938 124.078125 L 87.253906 124.078125 C 87.839844 124.078125 88.289062 124.523438 88.289062 125.109375 C 88.289062 125.695312 87.839844 126.144531 87.253906 126.144531 Z M 284.765625 126.144531 L 284.078125 126.144531 C 283.492188 126.144531 283.042969 125.695312 283.042969 125.109375 C 283.042969 124.523438 283.492188 124.078125 284.078125 124.078125 L 284.765625 124.078125 C 285.355469 124.078125 285.800781 124.523438 285.800781 125.109375 C 285.800781 125.695312 285.355469 126.144531 284.765625 126.144531 Z M 277.179688 126.144531 L 276.492188 126.144531 C 275.902344 126.144531 275.457031 125.695312 275.457031 125.109375 C 275.457031 124.523438 275.902344 124.078125 276.492188 124.078125 L 277.179688 124.078125 C 277.765625 124.078125 278.214844 124.523438 278.214844 125.109375 C 278.214844 125.695312 277.730469 126.144531 277.179688 126.144531 Z M 269.59375 126.144531 L 268.902344 126.144531 C 268.316406 126.144531 267.867188 125.695312 267.867188 125.109375 C 267.867188 124.523438 268.316406 124.078125 268.902344 124.078125 L 269.59375 124.078125 C 270.179688 124.078125 270.628906 124.523438 270.628906 125.109375 C 270.628906 125.695312 270.144531 126.144531 269.59375 126.144531 Z M 261.972656 126.144531 L 261.28125 126.144531 C 260.695312 126.144531 260.246094 125.695312 260.246094 125.109375 C 260.246094 124.523438 260.695312 124.078125 261.28125 124.078125 L 261.972656 124.078125 C 262.558594 124.078125 263.003906 124.523438 263.003906 125.109375 C 263.003906 125.695312 262.558594 126.144531 261.972656 126.144531 Z M 254.382812 126.144531 L 253.695312 126.144531 C 253.109375 126.144531 252.660156 125.695312 252.660156 125.109375 C 252.660156 124.523438 253.109375 124.078125 253.695312 124.078125 L 254.382812 124.078125 C 254.96875 124.078125 255.417969 124.523438 255.417969 125.109375 C 255.417969 125.695312 254.96875 126.144531 254.382812 126.144531 Z M 246.796875 126.144531 L 246.105469 126.144531 C 245.519531 126.144531 245.070312 125.695312 245.070312 125.109375 C 245.070312 124.523438 245.519531 124.078125 246.105469 124.078125 L 246.796875 124.078125 C 247.382812 124.078125 247.832031 124.523438 247.832031 125.109375 C 247.832031 125.695312 247.347656 126.144531 246.796875 126.144531 Z M 239.175781 126.144531 L 238.484375 126.144531 C 237.898438 126.144531 237.449219 125.695312 237.449219 125.109375 C 237.449219 124.523438 237.898438 124.078125 238.484375 124.078125 L 239.175781 124.078125 C 239.761719 124.078125 240.210938 124.523438 240.210938 125.109375 C 240.210938 125.695312 239.761719 126.144531 239.175781 126.144531 Z M 231.585938 126.144531 L 230.898438 126.144531 C 230.3125 126.144531 229.863281 125.695312 229.863281 125.109375 C 229.863281 124.523438 230.3125 124.078125 230.898438 124.078125 L 231.585938 124.078125 C 232.171875 124.078125 232.621094 124.523438 232.621094 125.109375 C 232.621094 125.695312 232.171875 126.144531 231.585938 126.144531 Z M 224 126.144531 L 223.308594 126.144531 C 222.722656 126.144531 222.273438 125.695312 222.273438 125.109375 C 222.273438 124.523438 222.722656 124.078125 223.308594 124.078125 L 224 124.078125 C 224.585938 124.078125 225.035156 124.523438 225.035156 125.109375 C 225.035156 125.695312 224.550781 126.144531 224 126.144531 Z M 216.414062 126.144531 L 215.722656 126.144531 C 215.136719 126.144531 214.6875 125.695312 214.6875 125.109375 C 214.6875 124.523438 215.136719 124.078125 215.722656 124.078125 L 216.414062 124.078125 C 217 124.078125 217.445312 124.523438 217.445312 125.109375 C 217.445312 125.695312 216.964844 126.144531 216.414062 126.144531 Z M 208.789062 126.144531 L 208.101562 126.144531 C 207.515625 126.144531 207.066406 125.695312 207.066406 125.109375 C 207.066406 124.523438 207.515625 124.078125 208.101562 124.078125 L 208.789062 124.078125 C 209.375 124.078125 209.824219 124.523438 209.824219 125.109375 C 209.824219 125.695312 209.375 126.144531 208.789062 126.144531 Z M 201.203125 126.144531 L 200.511719 126.144531 C 199.925781 126.144531 199.480469 125.695312 199.480469 125.109375 C 199.480469 124.523438 199.925781 124.078125 200.511719 124.078125 L 201.203125 124.078125 C 201.789062 124.078125 202.238281 124.523438 202.238281 125.109375 C 202.238281 125.695312 201.753906 126.144531 201.203125 126.144531 Z M 193.617188 126.144531 L 192.925781 126.144531 C 192.339844 126.144531 191.890625 125.695312 191.890625 125.109375 C 191.890625 124.523438 192.339844 124.078125 192.925781 124.078125 L 193.617188 124.078125 C 194.203125 124.078125 194.652344 124.523438 194.652344 125.109375 C 194.652344 125.695312 194.167969 126.144531 193.617188 126.144531 Z M 185.992188 126.144531 L 185.304688 126.144531 C 184.71875 126.144531 184.269531 125.695312 184.269531 125.109375 C 184.269531 124.523438 184.71875 124.078125 185.304688 124.078125 L 185.992188 124.078125 C 186.582031 124.078125 187.027344 124.523438 187.027344 125.109375 C 187.027344 125.695312 186.582031 126.144531 185.992188 126.144531 Z M 178.40625 126.144531 L 177.71875 126.144531 C 177.128906 126.144531 176.683594 125.695312 176.683594 125.109375 C 176.683594 124.523438 177.128906 124.078125 177.71875 124.078125 L 178.40625 124.078125 C 178.992188 124.078125 179.441406 124.523438 179.441406 125.109375 C 179.441406 125.695312 178.992188 126.144531 178.40625 126.144531 Z M 170.820312 126.144531 L 170.128906 126.144531 C 169.542969 126.144531 169.09375 125.695312 169.09375 125.109375 C 169.09375 124.523438 169.542969 124.078125 170.128906 124.078125 L 170.820312 124.078125 C 171.40625 124.078125 171.855469 124.523438 171.855469 125.109375 C 171.855469 125.695312 171.371094 126.144531 170.820312 126.144531 Z M 163.199219 126.144531 L 162.507812 126.144531 C 161.921875 126.144531 161.472656 125.695312 161.472656 125.109375 C 161.472656 124.523438 161.921875 124.078125 162.507812 124.078125 L 163.199219 124.078125 C 163.785156 124.078125 164.230469 124.523438 164.230469 125.109375 C 164.230469 125.695312 163.785156 126.144531 163.199219 126.144531 Z M 155.609375 126.144531 L 154.921875 126.144531 C 154.335938 126.144531 153.886719 125.695312 153.886719 125.109375 C 153.886719 124.523438 154.335938 124.078125 154.921875 124.078125 L 155.609375 124.078125 C 156.195312 124.078125 156.644531 124.523438 156.644531 125.109375 C 156.644531 125.695312 156.195312 126.144531 155.609375 126.144531 Z M 148.023438 126.144531 L 147.332031 126.144531 C 146.746094 126.144531 146.296875 125.695312 146.296875 125.109375 C 146.296875 124.523438 146.746094 124.078125 147.332031 124.078125 L 148.023438 124.078125 C 148.609375 124.078125 149.058594 124.523438 149.058594 125.109375 C 149.058594 125.695312 148.574219 126.144531 148.023438 126.144531 Z M 140.402344 126.144531 L 139.710938 126.144531 C 139.125 126.144531 138.675781 125.695312 138.675781 125.109375 C 138.675781 124.523438 139.125 124.078125 139.710938 124.078125 L 140.402344 124.078125 C 140.988281 124.078125 141.4375 124.523438 141.4375 125.109375 C 141.4375 125.695312 140.988281 126.144531 140.402344 126.144531 Z M 132.8125 126.144531 L 132.125 126.144531 C 131.539062 126.144531 131.089844 125.695312 131.089844 125.109375 C 131.089844 124.523438 131.539062 124.078125 132.125 124.078125 L 132.8125 124.078125 C 133.398438 124.078125 133.847656 124.523438 133.847656 125.109375 C 133.847656 125.695312 133.398438 126.144531 132.8125 126.144531 Z M 125.226562 126.144531 L 124.535156 126.144531 C 123.949219 126.144531 123.503906 125.695312 123.503906 125.109375 C 123.503906 124.523438 123.949219 124.078125 124.535156 124.078125 L 125.226562 124.078125 C 125.8125 124.078125 126.261719 124.523438 126.261719 125.109375 C 126.261719 125.695312 125.777344 126.144531 125.226562 126.144531 Z M 117.640625 126.144531 L 116.949219 126.144531 C 116.363281 126.144531 115.914062 125.695312 115.914062 125.109375 C 115.914062 124.523438 116.363281 124.078125 116.949219 124.078125 L 117.640625 124.078125 C 118.226562 124.078125 118.671875 124.523438 118.671875 125.109375 C 118.671875 125.695312 118.191406 126.144531 117.640625 126.144531 Z M 110.015625 126.144531 L 109.328125 126.144531 C 108.742188 126.144531 108.292969 125.695312 108.292969 125.109375 C 108.292969 124.523438 108.742188 124.078125 109.328125 124.078125 L 110.015625 124.078125 C 110.601562 124.078125 111.050781 124.523438 111.050781 125.109375 C 111.050781 125.695312 110.601562 126.144531 110.015625 126.144531 Z M 102.429688 126.144531 L 101.738281 126.144531 C 101.152344 126.144531 100.707031 125.695312 100.707031 125.109375 C 100.707031 124.523438 101.152344 124.078125 101.738281 124.078125 L 102.429688 124.078125 C 103.015625 124.078125 103.464844 124.523438 103.464844 125.109375 C 103.464844 125.695312 103.015625 126.144531 102.429688 126.144531 Z M 94.84375 126.144531 L 94.152344 126.144531 C 93.566406 126.144531 93.117188 125.695312 93.117188 125.109375 C 93.117188 124.523438 93.566406 124.078125 94.152344 124.078125 L 94.84375 124.078125 C 95.429688 124.078125 95.878906 124.523438 95.878906 125.109375 C 95.878906 125.695312 95.394531 126.144531 94.84375 126.144531 Z M 94.84375 126.144531"/></g></svg>