<svg xmlns="http://www.w3.org/2000/svg" width="375" viewBox="0 0 375 375" height="375" version="1.0"><defs><clipPath id="a"><path d="M 112.5 112.5 L 262.5 112.5 L 262.5 262.5 L 112.5 262.5 Z M 112.5 112.5"/></clipPath></defs><g clip-path="url(#a)"><path d="M 224.882812 112.5 L 150 112.5 C 129.40625 112.5 112.5 129.40625 112.5 150.117188 L 112.5 225 C 112.5 245.59375 129.40625 262.5 150 262.5 L 224.882812 262.5 C 245.59375 262.5 262.5 245.59375 262.5 224.882812 L 262.5 150.117188 C 262.5 129.40625 245.59375 112.5 224.882812 112.5 Z M 207.617188 187.5 L 193.453125 187.5 L 193.453125 233.929688 L 175.59375 233.929688 L 175.59375 187.5 L 166.070312 187.5 L 166.070312 168.453125 L 174.40625 168.453125 L 174.40625 160.355469 C 174.40625 152.738281 178.214844 140.714844 194.285156 140.714844 L 208.929688 140.714844 L 208.929688 156.546875 L 198.570312 156.546875 C 196.90625 156.546875 194.644531 157.617188 194.644531 161.308594 L 194.644531 168.453125 L 209.285156 168.453125 Z M 207.617188 187.5"/></g></svg>