<svg xmlns="http://www.w3.org/2000/svg" width="375" viewBox="0 0 375 375" height="375" version="1.0"><defs><clipPath id="a"><path d="M 151.890625 151.890625 L 223.140625 151.890625 L 223.140625 223.140625 L 151.890625 223.140625 Z M 151.890625 151.890625"/></clipPath></defs><g clip-path="url(#a)"><path d="M 205.273438 151.890625 L 169.703125 151.890625 C 159.921875 151.890625 151.890625 159.921875 151.890625 169.761719 L 151.890625 205.328125 C 151.890625 215.109375 159.921875 223.140625 169.703125 223.140625 L 205.273438 223.140625 C 215.109375 223.140625 223.140625 215.109375 223.140625 205.273438 L 223.140625 169.761719 C 223.140625 159.921875 215.109375 151.890625 205.273438 151.890625 Z M 197.074219 187.515625 L 190.34375 187.515625 L 190.34375 209.570312 L 181.859375 209.570312 L 181.859375 187.515625 L 177.335938 187.515625 L 177.335938 178.46875 L 181.296875 178.46875 L 181.296875 174.621094 C 181.296875 171.003906 183.105469 165.292969 190.738281 165.292969 L 197.695312 165.292969 L 197.695312 172.8125 L 192.773438 172.8125 C 191.984375 172.8125 190.910156 173.324219 190.910156 175.074219 L 190.910156 178.46875 L 197.863281 178.46875 Z M 197.074219 187.515625"/></g></svg>