<svg xmlns="http://www.w3.org/2000/svg" width="375" viewBox="0 0 375 375" height="375" version="1.0"><defs><clipPath id="a"><path d="M 112.5 112.5 L 262.5 112.5 L 262.5 262.5 L 112.5 262.5 Z M 112.5 112.5"/></clipPath></defs><g clip-path="url(#a)"><path d="M 156.816406 112.5 C 132.382812 112.5 112.5 132.382812 112.5 156.816406 L 112.5 218.183594 C 112.5 242.617188 132.382812 262.5 156.816406 262.5 L 218.183594 262.5 C 242.617188 262.5 262.5 242.617188 262.5 218.183594 L 262.5 156.816406 C 262.5 132.382812 242.617188 112.5 218.183594 112.5 Z M 156.816406 119.316406 L 218.183594 119.316406 C 238.929688 119.316406 255.683594 136.070312 255.683594 156.816406 L 255.683594 218.183594 C 255.683594 238.929688 238.929688 255.683594 218.183594 255.683594 L 156.816406 255.683594 C 136.070312 255.683594 119.316406 238.929688 119.316406 218.183594 L 119.316406 156.816406 C 119.316406 136.070312 136.070312 119.316406 156.816406 119.316406 Z M 228.410156 139.773438 C 227.960938 139.773438 227.519531 139.816406 227.078125 139.902344 C 226.640625 139.992188 226.214844 140.121094 225.800781 140.292969 C 225.386719 140.464844 224.992188 140.671875 224.621094 140.921875 C 224.25 141.171875 223.90625 141.453125 223.585938 141.769531 C 223.269531 142.085938 222.988281 142.429688 222.738281 142.804688 C 222.492188 143.175781 222.28125 143.566406 222.109375 143.980469 C 221.9375 144.394531 221.808594 144.820312 221.722656 145.261719 C 221.632812 145.699219 221.589844 146.144531 221.589844 146.589844 C 221.589844 147.039062 221.632812 147.480469 221.722656 147.921875 C 221.808594 148.359375 221.9375 148.785156 222.109375 149.199219 C 222.28125 149.613281 222.492188 150.007812 222.738281 150.378906 C 222.988281 150.75 223.269531 151.09375 223.585938 151.410156 C 223.90625 151.730469 224.25 152.011719 224.621094 152.261719 C 224.992188 152.507812 225.386719 152.71875 225.800781 152.890625 C 226.214844 153.0625 226.640625 153.191406 227.078125 153.277344 C 227.519531 153.367188 227.960938 153.410156 228.410156 153.410156 C 228.855469 153.410156 229.300781 153.367188 229.738281 153.277344 C 230.179688 153.191406 230.605469 153.0625 231.019531 152.890625 C 231.433594 152.71875 231.824219 152.507812 232.195312 152.261719 C 232.570312 152.011719 232.914062 151.730469 233.230469 151.410156 C 233.546875 151.09375 233.828125 150.75 234.078125 150.378906 C 234.328125 150.007812 234.535156 149.613281 234.707031 149.199219 C 234.878906 148.785156 235.007812 148.359375 235.097656 147.921875 C 235.183594 147.480469 235.226562 147.039062 235.226562 146.589844 C 235.226562 146.144531 235.183594 145.699219 235.097656 145.261719 C 235.007812 144.820312 234.878906 144.394531 234.707031 143.980469 C 234.535156 143.566406 234.328125 143.175781 234.078125 142.804688 C 233.828125 142.429688 233.546875 142.085938 233.230469 141.769531 C 232.914062 141.453125 232.570312 141.171875 232.195312 140.921875 C 231.824219 140.671875 231.433594 140.464844 231.019531 140.292969 C 230.605469 140.121094 230.179688 139.992188 229.738281 139.902344 C 229.300781 139.816406 228.855469 139.773438 228.410156 139.773438 Z M 187.5 150 C 166.828125 150 150 166.828125 150 187.5 C 150 208.171875 166.828125 225 187.5 225 C 208.171875 225 225 208.171875 225 187.5 C 225 166.828125 208.171875 150 187.5 150 Z M 187.5 156.816406 C 204.484375 156.816406 218.183594 170.515625 218.183594 187.5 C 218.183594 204.484375 204.484375 218.183594 187.5 218.183594 C 170.515625 218.183594 156.816406 204.484375 156.816406 187.5 C 156.816406 170.515625 170.515625 156.816406 187.5 156.816406 Z M 187.5 156.816406"/></g></svg>